# xmcd CD database file
#
# Track frame offsets:
#	150
#	17930
#	40351
#	63035
#	69108
#	83699
#	96217
#	111609
#	127278
#	145762
#	156113
#	170191
#	182847
#	202357
#	207425
#	222401
#	239080
#	256029
#	270648
#	288686
#	304511
#
# Disc length: 4319 seconds
#
# Revision: 0
# Processed by: cddbd v1.5.1PL0 Copyright (c) Steve Scherf et al.
# Submitted via: CDex 1.51
#
DISCID=4d10dd15
DTITLE=Art Tatum - Live Vol. 5
DYEAR=1951
DGENRE=Jazz
TTITLE0=Tenderly
TTITLE1=The Man I Love
TTITLE2=Body And Soul
TTITLE3=Flying Home
TTITLE4=My Heart Stood Still
TTITLE5=How High The Moon
TTITLE6=Come Rain Or Come Shine
TTITLE7=Beginthe Beguine
TTITLE8=Body And Soul
TTITLE9=I Know That You Know
TTITLE10=Honeysuckel Rose
TTITLE11=Sittin' And Rockin'
TTITLE12=Memories Of You
TTITLE13=The Kerry Dance
TTITLE14=Interview Of Tatum By Leonard Feather
TTITLE15=Taboo
TTITLE16=Come Rain Or Come Shine
TTITLE17=Honeysuckel Rose
TTITLE18=Don'b Blame Me
TTITLE19=Taboo
TTITLE20=Gershwin Medley
EXTD=YEAR: 1951
EXTT0=
EXTT1=
EXTT2=
EXTT3=
EXTT4=
EXTT5=
EXTT6=
EXTT7=
EXTT8=
EXTT9=
EXTT10=
EXTT11=
EXTT12=
EXTT13=
EXTT14=
EXTT15=
EXTT16=
EXTT17=
EXTT18=
EXTT19=
EXTT20=
PLAYORDER=
